<svg xmlns="http://www.w3.org/2000/svg" xmlns:xlink="http://www.w3.org/1999/xlink" viewBox="0,0,256,256" width="20px" height="20px"><g fill="none" fill-rule="nonzero" stroke="none" stroke-width="1" stroke-linecap="butt" stroke-linejoin="miter" stroke-miterlimit="10" stroke-dasharray="" stroke-dashoffset="0" font-family="none" font-weight="none" font-size="none" text-anchor="none" style="mix-blend-mode: normal"><g transform="scale(5.33333,5.33333)"><path d="M38.544,16.899c-3.966,-3.891 -15.491,-11.899 -22.544,-11.899c-3,0 -6,1 -8,6c-2,5 -2,13 -2,13c0,0 0,8 2,13c2,5 5,6 8,6c7.053,0 18.578,-8.008 22.544,-11.899c1.66,-1.628 3.456,-3.679 3.456,-7.101c0,-3.422 -1.796,-5.473 -3.456,-7.101z" fill="#b8bab7"></path><path d="M16.472,19.839c-0.296,2.881 -0.296,5.441 0,8.322c0.209,2.031 2.321,3.298 4.187,2.469c1.979,-0.879 4.578,-2.234 7.324,-4.22c1.629,-1.178 1.629,-3.642 0,-4.82c-2.746,-1.986 -5.345,-3.342 -7.324,-4.22c-1.866,-0.829 -3.978,0.438 -4.187,2.469z" fill="#ffffff"></path></g></g></svg>